<svg width="75" height="75" viewBox="0 0 75 75" fill="none" xmlns="http://www.w3.org/2000/svg">
<g clip-path="url(#clip0_43_156)">
<rect width="75" height="75" rx="20" fill="#232323"/>
<path d="M25.5805 25.4281C25.5805 24.2932 26.5061 23.3733 27.6477 23.3733H60.9799C62.1214 23.3733 63.047 24.2932 63.047 25.4281V57.0206C63.047 59.2903 61.1961 61.1301 58.9128 61.1301H25.5805V25.4281Z" fill="url(#paint0_linear_43_156)"/>
<path d="M58.9128 61.1301H18.3456C15.9197 61.1301 13.953 59.1753 13.953 56.7637V18.2363C13.953 15.8248 15.9197 13.8698 18.3456 13.8698L54.5201 13.8699C56.9461 13.8699 58.9128 15.8248 58.9128 18.2363V61.1301Z" fill="url(#paint1_linear_43_156)"/>
<path d="M28.2976 19.0934V25.92H26.6483L24.0187 22.3333H23.9758V25.92H22V19.0934H23.6772L26.2647 22.6667H26.3214V19.0934H28.2976ZM28.8317 25.92V19.0934H34.0776V20.5867H30.8079V21.76H33.8074V23.2533H30.8079V24.4267H34.0635V25.92H28.8317ZM36.5054 25.92L34.3587 19.0934H36.5621L37.5575 23.2934H37.6142L38.7943 19.0934H40.5287L41.7084 23.3067H41.7655L42.7605 19.0934H44.9639L42.8172 25.92H40.9265L39.6896 22.1067H39.6329L38.3961 25.92H36.5054ZM49.0097 21.2267C48.9909 21.0044 48.9016 20.8311 48.7432 20.7067C48.5868 20.5822 48.3487 20.52 48.0289 20.52C47.8249 20.52 47.6581 20.5433 47.5276 20.59C47.3996 20.6345 47.3049 20.6955 47.2432 20.7733C47.1815 20.8511 47.1498 20.94 47.1473 21.04C47.1427 21.1222 47.1582 21.1967 47.1936 21.2634C47.2315 21.3278 47.2908 21.3867 47.3712 21.44C47.4517 21.4911 47.5547 21.5378 47.6802 21.58C47.8062 21.6222 47.9555 21.66 48.1281 21.6934L48.7253 21.8133C49.1281 21.8933 49.4729 21.9989 49.7594 22.13C50.0463 22.2611 50.2807 22.4156 50.4633 22.5933C50.6455 22.7689 50.7794 22.9667 50.8649 23.1867C50.9525 23.4067 50.9975 23.6467 51 23.9067C50.9975 24.3556 50.8778 24.7356 50.641 25.0467C50.4041 25.3578 50.0651 25.5945 49.6243 25.7567C49.186 25.9189 48.6589 26 48.043 26C47.4104 26 46.8583 25.9122 46.3867 25.7367C45.9176 25.5611 45.5527 25.2911 45.2921 24.9267C45.0339 24.56 44.9034 24.0911 44.9013 23.52H46.7779C46.7895 23.7289 46.8454 23.9045 46.9447 24.0467C47.0443 24.1889 47.184 24.2967 47.3642 24.37C47.5464 24.4433 47.7632 24.48 48.0147 24.48C48.2253 24.48 48.4021 24.4556 48.5443 24.4067C48.6861 24.3578 48.7941 24.29 48.8675 24.2034C48.9408 24.1167 48.9788 24.0178 48.9813 23.9067C48.9788 23.8022 48.9421 23.7111 48.8712 23.6333C48.8024 23.5534 48.6886 23.4822 48.5297 23.42C48.3712 23.3556 48.1569 23.2956 47.8867 23.24L47.1615 23.0933C46.5172 22.9622 46.0089 22.7433 45.6369 22.4367C45.2675 22.1278 45.0836 21.7067 45.0861 21.1733C45.0836 20.74 45.207 20.3611 45.4555 20.0367C45.707 19.71 46.0539 19.4556 46.4968 19.2733C46.9426 19.0911 47.453 19 48.0289 19C48.6164 19 49.1247 19.0922 49.5534 19.2767C49.9821 19.4611 50.3128 19.7211 50.545 20.0567C50.7794 20.39 50.8978 20.78 50.9003 21.2267H49.0097Z" fill="#BABABA"/>
</g>
<defs>
<linearGradient id="paint0_linear_43_156" x1="22.5" y1="23" x2="71" y2="83.5" gradientUnits="userSpaceOnUse">
<stop stop-color="#D7D7D7"/>
<stop offset="0.34365" stop-color="#B9B9B9"/>
<stop offset="0.34375" stop-color="#D7D7D7"/>
</linearGradient>
<linearGradient id="paint1_linear_43_156" x1="36.4329" y1="13.8698" x2="72.5" y2="63.5" gradientUnits="userSpaceOnUse">
<stop stop-color="white"/>
<stop offset="0.401042" stop-color="#E0E0E0"/>
<stop offset="0.401142" stop-color="#A8A8A8"/>
</linearGradient>
<clipPath id="clip0_43_156">
<rect width="75" height="75" fill="white"/>
</clipPath>
</defs>
</svg>
